{"title":"Resident Evil Apocalypse (2004) 1080p BluRay {DD 5.1 Triple Audi","uid":9826057,"size":2137410606,"categoryP":"video","categoryS":"hd___movies","magnet":"?xt=urn:btih:e743892521e91cb51c42512a53b0dfaaa761f682&amp;dn=Resident+Evil+Apocalypse+%282004%29+1080p+BluRay+%7BDD+5.1+Triple+Audi&amp;tr=udp%3A%2F%2Ftracker.openbittorrent.com%3A80&amp;tr=udp%3A%2F%2Fopen.demonii.com%3A1337&amp;tr=udp%3A%2F%2Ftracker.coppersurfer.tk%3A6969&amp;tr=udp%3A%2F%2Fexodus.desync.com%3A6969","seeders":1,"leechers":0,"uploader":"SaNRiM","files":-1,"time":1395780131,"description":"Storyline\nAlice awakens from a terrible sleep to find her worst fears realized--the bloodthirsty Undead, which she and the now-annihilated squad of elite military fought to destroy, have been unleashed on the city that surrounds the secret facility of the Umbrella Corporation. Discovering she was an Umbrella experiment, Alice has been bio-genetically enhanced with new strengths, senses and dexterity--and she will need them. In the heart of the ravaged Raccoon City, a small group of uninfected people, including Jill Valentine, a recently demoted member of Umbrella Corp's elite Special Tactics and Rescue Services team, and S.T.A.R.S team leader Carlos Oliveira, fight for their lives against swarms of Undead and the deadlier and faster Lickers. Running out of luck and resources, the group is rescued by Alice, and they begin to wage an exhilarating battle to survive and escape before the Umbrella Corporation erases its experiment from the face of the earth. Their only hope lies somewhere within ...\n\n\nTorrent Info\n\nGeneral\n\nUnique ID : 244197591753302728731796200211415416742 (0xB7B6BED48867216BBC4B66C5DB0DBFA6)\nComplete name : Resident Evil Apocalypse (2004) 1080p BluRay Triple Audio ~SaNRiM~.mkv\nFormat : Matroska\nFormat version : Version 4 / Version 2\nFile size : 1.98 GiB\nDuration : 1h 33mn\nOverall bit rate : 3 016 Kbps\nEncoded date : UTC 2014-03-25 02:28:57\nWriting library : libebml v1.3.0 + libmatroska v1.4.1\n\n\nVideo\n\nID : 1\nFormat : AVC\nFormat/Info : Advanced Video Codec\nFormat profile : &lt;a class=&quot;__cf_email__&quot; href=&quot;/cdn-cgi/l/email-protection&quot; data-cfemail=&quot;2961404e4169651d0719&quot;&gt;[email&amp;#160;protected]&lt;/a&gt;&lt;script cf-hash='f9e31' type=&quot;text/javascript&quot;&gt;\n/* &lt;![CDATA[ */!function(){try{var t=&quot;currentScript&quot;in document?document.currentScript:function(){for(var t=document.getElementsByTagName(&quot;script&quot;),e=t.length;e--;)if(t[e].getAttribute(&quot;cf-hash&quot;))return t[e]}();if(t&amp;&amp;t.previousSibling){var e,r,n,i,c=t.previousSibling,a=c.getAttribute(&quot;data-cfemail&quot;);if(a){for(e=&quot;&quot;,r=parseInt(a.substr(0,2),16),n=2;a.length-n;n+=2)i=parseInt(a.substr(n,2),16)^r,e+=String.fromCharCode(i);e=document.createTextNode(e),c.parentNode.replaceChild(e,c)}}}catch(u){}}();/* ]]&gt; */&lt;/script&gt;\nFormat settings, CABAC : Yes\nFormat settings, ReFrames : 4 frames\nCodec ID : V_MPEG4/ISO/AVC\nDuration : 1h 33mn\nBit rate : 1 663 Kbps\nWidth : 1 920 pixels\nHeight : 800 pixels\nDisplay aspect ratio : 2.40:1\nFrame rate mode : Constant\nFrame rate : 23.976 fps\nColor space : YUV\nChroma subsampling : 4:2:0\nBit depth : 8 bits\nScan type : Progressive\nBits/(Pixel*Frame) : 0.045\nStream size : 1.06 GiB (53%)\nTitle : ~SaNRiM~\nWriting library : x264 core 129 r2230 1cffe9f\nLanguage : English\nDefault : Yes\nForced : No\n\n\nAudio #1\n\nID : 2\nFormat : AC-3\nFormat/Info : Audio Coding 3\nMode extension : CM (complete main)\nFormat settings, Endianness : Big\nCodec ID : A_AC3\nDuration : 1h 33mn\nBit rate mode : Constant\nBit rate : 448 Kbps\nChannel(s) : 6 channels\nChannel positions : Front: L C R, Side: L R, LFE\nSampling rate : 48.0 KHz\nBit depth : 16 bits\nCompression mode : Lossy\nStream size : 301 MiB (15%)\nTitle : ~SaNRiM~\nLanguage : Hindi\nDefault : Yes\nForced : No\n\n\nAudio #2\n\nID : 3\nFormat : AC-3\nFormat/Info : Audio Coding 3\nMode extension : CM (complete main)\nFormat settings, Endianness : Big\nCodec ID : A_AC3\nDuration : 1h 33mn\nBit rate mode : Constant\nBit rate : 448 Kbps\nChannel(s) : 6 channels\nChannel positions : Front: L C R, Side: L R, LFE\nSampling rate : 48.0 KHz\nBit depth : 16 bits\nCompression mode : Lossy\nStream size : 301 MiB (15%)\nTitle : ~SaNRiM~\nLanguage : Tamil\nDefault : No\nForced : No\n\n\nAudio #3\n\nID : 4\nFormat : AC-3\nFormat/Info : Audio Coding 3\nMode extension : CM (complete main)\nFormat settings, Endianness : Big\nCodec ID : A_AC3\nDuration : 1h 33mn\nBit rate mode : Constant\nBit rate : 448 Kbps\nChannel(s) : 6 channels\nChannel positions : Front: L C R, Side: L R, LFE\nSampling rate : 48.0 KHz\nBit depth : 16 bits\nCompression mode : Lossy\nStream size : 301 MiB (15%)\nTitle : ~SaNRiM~\nLanguage : English\nDefault : No\nForced : No\n\n\nText\n\nID : 5\nFormat : PGS\nMuxing mode : zlib\nCodec ID : S_HDMV/PGS\nCodec ID/Info : The same subtitle format used on BDs/HD-DVDs\nTitle : ~SaNRiM~\nLanguage : English\nDefault : Yes\nForced : No\n\n\n\nScreens\n &lt;a href=&quot;\nhttp://someimage.com/KE6tSar&quot; rel=&quot;nofollow&quot; target=&quot;_NEW&quot;&gt;\nhttp://someimage.com/KE6tSar&lt;/a&gt; &lt;a href=&quot;\nhttp://someimage.com/LCGfiFn&quot; rel=&quot;nofollow&quot; target=&quot;_NEW&quot;&gt;\nhttp://someimage.com/LCGfiFn&lt;/a&gt; &lt;a href=&quot;\nhttp://someimage.com/jkyNdS5&quot; rel=&quot;nofollow&quot; target=&quot;_NEW&quot;&gt;\nhttp://someimage.com/jkyNdS5&lt;/a&gt; &lt;a href=&quot;\nhttp://someimage.com/GYmQOwu&quot; rel=&quot;nofollow&quot; target=&quot;_NEW&quot;&gt;\nhttp://someimage.com/GYmQOwu&lt;/a&gt; &lt;a href=&quot;\nhttp://someimage.com/TPLTyLW&quot; rel=&quot;nofollow&quot; target=&quot;_NEW&quot;&gt;\nhttp://someimage.com/TPLTyLW&lt;/a&gt; &lt;a href=&quot;\nhttp://someimage.com/mPuvm3Q&quot; rel=&quot;nofollow&quot; target=&quot;_NEW&quot;&gt;\nhttp://someimage.com/mPuvm3Q&lt;/a&gt; &lt;a href=&quot;\nhttp://someimage.com/lllO64A&quot; rel=&quot;nofollow&quot; target=&quot;_NEW&quot;&gt;\nhttp://someimage.com/lllO64A&lt;/a&gt; &lt;a href=&quot;\nhttp://someimage.com/w29wCzC&quot; rel=&quot;nofollow&quot; target=&quot;_NEW&quot;&gt;\nhttp://someimage.com/w29wCzC&lt;/a&gt; &lt;a href=&quot;\nhttp://someimage.com/tKBeqev&quot; rel=&quot;nofollow&quot; target=&quot;_NEW&quot;&gt;\nhttp://someimage.com/tKBeqev&lt;/a&gt; &lt;a href=&quot;\nhttp://someimage.com/xNuubQn&quot; rel=&quot;nofollow&quot; target=&quot;_NEW&quot;&gt;\nhttp://someimage.com/xNuubQn&lt;/a&gt; &lt;a href=&quot;\nhttp://someimage.com/Qqk0AMW&quot; rel=&quot;nofollow&quot; target=&quot;_NEW&quot;&gt;\nhttp://someimage.com/Qqk0AMW&lt;/a&gt; &lt;a href=&quot;\nhttp://someimage.com/zjJkBT9&quot; rel=&quot;nofollow&quot; target=&quot;_NEW&quot;&gt;\nhttp://someimage.com/zjJkBT9&lt;/a&gt; &lt;a href=&quot;\nhttp://someimage.com/WLB3Awi&quot; rel=&quot;nofollow&quot; target=&quot;_NEW&quot;&gt;\nhttp://someimage.com/WLB3Awi&lt;/a&gt; &lt;a href=&quot;\nhttp://someimage.com/BIpdPRl&quot; rel=&quot;nofollow&quot; target=&quot;_NEW&quot;&gt;\nhttp://someimage.com/BIpdPRl&lt;/a&gt; &lt;a href=&quot;\nhttp://someimage.com/L6sGSFS&quot; rel=&quot;nofollow&quot; target=&quot;_NEW&quot;&gt;\nhttp://someimage.com/L6sGSFS&lt;/a&gt; &lt;a href=&quot;\nhttp://someimage.com/dl1jBsl&quot; rel=&quot;nofollow&quot; target=&quot;_NEW&quot;&gt;\nhttp://someimage.com/dl1jBsl&lt;/a&gt; &lt;a href=&quot;\nhttp://someimage.com/iEit5q8&quot; rel=&quot;nofollow&quot; target=&quot;_NEW&quot;&gt;\nhttp://someimage.com/iEit5q8&lt;/a&gt; &lt;a href=&quot;\nhttp://someimage.com/AiVRjEc&quot; rel=&quot;nofollow&quot; target=&quot;_NEW&quot;&gt;\nhttp://someimage.com/AiVRjEc&lt;/a&gt; &lt;a href=&quot;\nhttp://someimage.com/F8Rn2l2&quot; rel=&quot;nofollow&quot; target=&quot;_NEW&quot;&gt;\nhttp://someimage.com/F8Rn2l2&lt;/a&gt;\n\n\n\n\n                   NOTE: HINDI AUDIO IS REMASTERED\n\n\n\n                  If you like my work please comment\n                          Any request? Just PM me\n                       Please seed long after download\n                         Thank you &amp; enjoy the best\n                                 ~SaNRiM~\t","torrent":{"xt":"urn:btih:e743892521e91cb51c42512a53b0dfaaa761f682","amp;dn":"Resident+Evil+Apocalypse+%282004%29+1080p+BluRay+%7BDD+5.1+Triple+Audi","amp;tr":["udp%3A%2F%2Ftracker.openbittorrent.com%3A80","udp%3A%2F%2Fopen.demonii.com%3A1337","udp%3A%2F%2Ftracker.coppersurfer.tk%3A6969","udp%3A%2F%2Fexodus.desync.com%3A6969"],"infoHash":"e743892521e91cb51c42512a53b0dfaaa761f682","infoHashBuffer":{"type":"Buffer","data":[231,67,137,37,33,233,28,181,28,66,81,42,83,176,223,170,167,97,246,130]},"announce":[],"urlList":[]}}